<?xml version="1.0" encoding="UTF-8"?>
<svg id="Layer_2" data-name="Layer 2" xmlns="http://www.w3.org/2000/svg" viewBox="0 0 559.01 102.26">
  <defs>
    <style>
      .cls-1 {
        fill: none;
        stroke: #fff;
        stroke-miterlimit: 10;
        stroke-width: 2px;
      }

      .cls-2 {
        fill: #fff;
        stroke-width: 0px;
      }
    </style>
  </defs>
  <g id="Layer_1-2" data-name="Layer 1">
    <rect class="cls-1" x="1" y="1" width="557.01" height="100.26"/>
    <g>
      <path class="cls-2" d="m73.53,21.33l-7.17,15.5h-12.78v44.11h-11.07v-44.11h-16.79l7.17-15.5h40.64Z"/>
      <path class="cls-2" d="m118.45,65.61l-7.11,15.33h-34.44V21.33h41.45l-7.17,15.5h-23.16v7.13h28.34l-6.36,13.54h-21.98v8.11h30.43Z"/>
      <path class="cls-2" d="m167.76,65.61l-7.11,15.33h-17.97c-12.41,0-21.55-13.1-21.55-30.38s9.14-29.23,21.55-29.23h25.08l-7.11,15.5h-17.97c-5.99,0-10.48,5.97-10.48,14.52s4.44,14.26,10.48,14.26h25.08Z"/>
      <path class="cls-2" d="m215.03,80.94h-11.02v-22.99h-21.28v22.99h-11.12V21.33h11.12v21.12h21.28v-21.12h11.02v59.61Z"/>
      <path class="cls-2" d="m285.74,80.94h-11.02v-22.99h-21.28v22.99h-11.12V21.33h11.12v21.12h21.28v-21.12h11.02v59.61Z"/>
      <path class="cls-2" d="m334.08,65.61l-7.11,15.33h-34.44V21.33h41.45l-7.17,15.5h-23.16v7.13h28.34l-6.36,13.54h-21.98v8.11h30.43Z"/>
      <path class="cls-2" d="m351.2,80.94l6.69-15.33h8.98c2.14,0,4.65,0,6.36.18-.96-2.14-2.46-5.79-3.64-8.64l-6.42-15.77-16.79,39.56h-13.1l22.94-53.91c1.5-3.48,3.69-6.68,7.17-6.68s5.51,2.94,7.06,6.68l22.35,53.91h-41.61Z"/>
      <path class="cls-2" d="m395.69,21.33l16.1,39.56,16.79-39.56h13.05l-22.89,53.91c-1.55,3.47-3.74,6.68-7.17,6.68s-5.51-2.94-7.06-6.68l-22.41-53.91h13.58Z"/>
      <path class="cls-2" d="m487.14,65.61l-7.11,15.33h-34.44V21.33h41.45l-7.17,15.5h-23.16v7.13h28.34l-6.36,13.54h-21.98v8.11h30.43Z"/>
      <path class="cls-2" d="m522.76,78.71l-21.93-32.79v35.02h-10.05V31.48c0-7.93,2.89-11.14,6.04-11.14,1.34,0,2.67.53,4.44,3.21l21.93,32.79V21.33h10.11v49.36c0,7.93-2.89,11.23-6.1,11.23-1.39,0-2.73-.54-4.44-3.21Z"/>
    </g>
  </g>
</svg>